<?xml version="1.0" standalone="no"?>
<!DOCTYPE svg PUBLIC "-//W3C//DTD SVG 20010904//EN"
 "http://www.w3.org/TR/2001/REC-SVG-20010904/DTD/svg10.dtd">
<svg version="1.0" xmlns="http://www.w3.org/2000/svg"
 width="128.000000pt" height="98.000000pt" viewBox="0 0 128.000000 98.000000"
 preserveAspectRatio="xMidYMid meet">
<metadata>
Created by potrace 1.10, written by Peter Selinger 2001-2011
</metadata>
<g transform="translate(0.000000,98.000000) scale(0.100000,-0.100000)"
fill="#2d2626" stroke="none">
<path d="M421 944 c-32 -26 -57 -92 -48 -125 5 -17 -1 -19 -49 -19 l-54 0 0
-397 0 -398 375 0 375 0 2 398 3 397 -72 0 c-64 0 -71 2 -66 19 9 33 -16 99
-48 125 -30 26 -32 26 -209 26 -177 0 -179 0 -209 -26z m379 1 c40 -21 60 -53
60 -96 0 -65 5 -69 79 -69 l66 0 0 -380 0 -380 -357 0 -358 0 0 380 0 380 50
0 c51 0 54 3 51 46 -3 38 27 93 61 114 29 17 50 20 176 20 107 0 150 -4 172
-15z"/>
<path d="M465 885 c-24 -23 -31 -57 -19 -89 5 -14 31 -16 184 -16 153 0 179 2
184 16 12 32 5 66 -19 89 -23 24 -29 25 -165 25 -136 0 -142 -1 -165 -25z
m314 -9 c7 -8 14 -28 16 -45 l4 -31 -169 0 -170 0 0 23 c0 12 7 33 16 45 14
21 22 22 153 22 108 0 141 -3 150 -14z"/>
<path d="M25 775 l-25 -24 0 -349 c0 -417 -8 -389 118 -394 l82 -3 0 397 0
398 -75 0 c-67 0 -79 -3 -100 -25z m155 -375 l0 -380 -62 0 c-104 0 -98 -23
-98 378 0 403 -5 382 97 382 l63 0 0 -380z"/>
<path d="M1100 403 l0 -398 75 3 c63 3 77 7 90 25 13 18 15 76 15 370 l0 348
-25 24 c-21 22 -33 25 -90 25 l-65 0 0 -397z m142 360 c17 -15 18 -40 18 -361
0 -399 4 -382 -87 -382 l-53 0 0 380 0 380 52 0 c34 0 58 -6 70 -17z"/>
</g>
</svg>
