<?xml version="1.0" standalone="no"?>
<!DOCTYPE svg PUBLIC "-//W3C//DTD SVG 20010904//EN"
 "http://www.w3.org/TR/2001/REC-SVG-20010904/DTD/svg10.dtd">
<svg version="1.0" xmlns="http://www.w3.org/2000/svg"
 width="126.000000pt" height="87.000000pt" viewBox="0 0 126.000000 87.000000"
 preserveAspectRatio="xMidYMid meet">
<metadata>
Created by potrace 1.10, written by Peter Selinger 2001-2011
</metadata>
<g transform="translate(0.000000,87.000000) scale(0.100000,-0.100000)"
fill="#2d2626" stroke="none">
<path d="M336 770 c-165 -54 -303 -105 -307 -112 -12 -19 8 -33 84 -58 l67
-22 -19 -27 c-10 -14 -25 -54 -31 -89 -7 -34 -17 -62 -22 -62 -4 0 -13 -12
-19 -27 -8 -22 -6 -32 11 -55 16 -22 19 -36 14 -66 -9 -48 -39 -107 -80 -158
l-34 -41 44 -24 c36 -19 50 -21 72 -14 60 22 87 100 75 218 -5 51 -4 71 6 79
18 15 16 63 -3 78 -30 26 2 129 51 169 25 19 370 161 392 161 6 0 16 -7 23
-16 20 -24 2 -34 -182 -105 l-168 -64 165 -55 164 -56 303 102 c259 86 303
104 306 122 3 18 -25 30 -301 121 -167 56 -306 101 -308 101 -2 0 -139 -45
-303 -100z m614 -25 l295 -98 -302 -101 -302 -100 -139 45 -138 45 150 56
c119 44 154 61 166 81 13 23 13 28 -4 46 -11 12 -26 21 -35 21 -20 0 -273 -96
-353 -134 -32 -15 -68 -40 -82 -56 -30 -37 -54 -137 -37 -160 22 -30 24 -43 8
-70 -9 -15 -14 -29 -12 -32 3 -3 5 -44 6 -91 1 -68 -3 -94 -18 -118 -28 -49
-46 -56 -89 -36 l-37 18 31 32 c57 59 101 198 70 221 -25 19 -29 45 -10 64 10
10 24 45 30 77 7 32 21 73 31 90 10 18 16 37 12 42 -3 6 -40 21 -81 35 l-75
25 300 101 c165 55 305 99 310 98 6 -2 143 -47 305 -101z"/>
<path d="M833 421 l-192 -66 -188 63 c-104 34 -192 62 -196 62 -16 0 -6 -62
14 -89 21 -29 23 -81 5 -123 -6 -13 7 -23 66 -51 99 -47 186 -61 344 -55 176
8 302 50 333 113 10 20 20 216 11 214 -3 -1 -91 -31 -197 -68z m-16 -27 c98
32 183 61 188 63 14 5 8 -146 -7 -175 -6 -12 -34 -33 -62 -47 -153 -75 -434
-74 -594 2 -43 20 -51 27 -41 39 18 22 13 94 -10 125 -45 61 -31 60 164 -4
l185 -62 177 59z"/>
</g>
</svg>
