<?xml version="1.0" standalone="no"?>
<!DOCTYPE svg PUBLIC "-//W3C//DTD SVG 20010904//EN"
 "http://www.w3.org/TR/2001/REC-SVG-20010904/DTD/svg10.dtd">
<svg version="1.0" xmlns="http://www.w3.org/2000/svg"
 width="110.000000pt" height="94.000000pt" viewBox="0 0 110.000000 94.000000"
 preserveAspectRatio="xMidYMid meet">
<metadata>
Created by potrace 1.10, written by Peter Selinger 2001-2011
</metadata>
<g transform="translate(0.000000,94.000000) scale(0.100000,-0.100000)"
fill="#2d2626" stroke="none">
<path d="M20 911 c-6 -13 -10 -166 -10 -430 l0 -410 24 -28 24 -28 506 -3 506
-3 10 26 c12 32 13 794 1 813 -4 7 -21 16 -37 21 -17 4 -34 18 -42 34 l-13 27
-479 0 c-464 0 -480 -1 -490 -19z m949 -8 c22 -18 22 -20 22 -437 0 -237 -3
-422 -9 -428 -5 -5 -197 -7 -455 -6 l-446 3 -30 29 -31 30 0 392 0 393 26 20
c26 21 37 21 464 21 402 0 440 -1 459 -17z m95 -72 c16 -17 17 -51 14 -395 -3
-341 -5 -377 -20 -393 -17 -16 -19 -16 -33 2 -12 17 -14 81 -15 401 0 282 3
383 12 392 16 16 22 15 42 -7z"/>
<path d="M133 825 c-11 -8 -13 -40 -11 -150 l3 -140 139 -3 c105 -2 141 1 148
10 4 7 8 73 8 146 0 102 -3 134 -13 138 -26 10 -260 9 -274 -1z m247 -140 l0
-116 -112 3 -113 3 -3 99 c-1 55 0 106 2 113 4 10 33 13 116 13 l110 0 0 -115z"/>
<path d="M560 815 c0 -13 26 -15 175 -15 149 0 175 2 175 15 0 13 -26 15 -175
15 -149 0 -175 -2 -175 -15z"/>
<path d="M560 675 c0 -13 26 -15 175 -15 149 0 175 2 175 15 0 13 -26 15 -175
15 -149 0 -175 -2 -175 -15z"/>
<path d="M560 535 c0 -13 26 -15 175 -15 149 0 175 2 175 15 0 13 -26 15 -175
15 -149 0 -175 -2 -175 -15z"/>
<path d="M110 400 c0 -13 51 -15 395 -15 344 0 395 2 395 15 0 13 -51 15 -395
15 -344 0 -395 -2 -395 -15z"/>
<path d="M110 265 c0 -13 24 -15 160 -15 136 0 160 2 160 15 0 13 -24 15 -160
15 -136 0 -160 -2 -160 -15z"/>
<path d="M540 265 c0 -13 26 -15 181 -15 140 0 180 3 177 13 -4 9 -51 13 -181
15 -153 2 -177 0 -177 -13z"/>
<path d="M110 125 c0 -13 24 -15 160 -15 136 0 160 2 160 15 0 13 -24 15 -160
15 -136 0 -160 -2 -160 -15z"/>
<path d="M540 120 c0 -13 25 -15 177 -13 120 1 178 6 178 13 0 7 -59 11 -178
13 -152 2 -177 0 -177 -13z"/>
</g>
</svg>
