<?xml version="1.0" standalone="no"?>
<!DOCTYPE svg PUBLIC "-//W3C//DTD SVG 20010904//EN"
 "http://www.w3.org/TR/2001/REC-SVG-20010904/DTD/svg10.dtd">
<svg version="1.0" xmlns="http://www.w3.org/2000/svg"
 width="132.000000pt" height="132.000000pt" viewBox="0 0 132.000000 132.000000"
 preserveAspectRatio="xMidYMid meet">
<metadata>
Created by potrace 1.10, written by Peter Selinger 2001-2011
</metadata>
<g transform="translate(0.000000,132.000000) scale(0.100000,-0.100000)"
fill="#2d2626" stroke="none">
<path d="M985 1274 c-34 -17 -135 -114 -135 -129 0 -12 281 -295 294 -295 5 0
38 30 72 68 94 100 93 107 -48 247 -62 61 -123 114 -135 117 -12 3 -34 0 -48
-8z m137 -154 l101 -99 -34 -40 c-19 -22 -40 -40 -47 -40 -12 -1 -212 190
-212 203 0 8 74 75 83 76 5 0 54 -45 109 -100z"/>
<path d="M465 769 c-184 -184 -335 -339 -335 -345 0 -13 280 -294 293 -294 5
0 160 151 344 336 l336 335 -77 74 c-42 41 -110 109 -151 151 l-75 77 -335
-334z m444 139 l103 -101 -283 -282 c-156 -156 -285 -288 -287 -294 -2 -6 -10
-11 -18 -11 -16 0 -204 183 -204 198 0 5 43 52 97 103 53 52 184 183 292 292
108 108 196 197 197 197 0 0 47 -46 103 -102z"/>
<path d="M71 333 c-6 -21 -13 -58 -16 -83 -3 -25 -13 -84 -22 -132 -9 -48 -14
-91 -10 -95 4 -4 47 1 95 10 48 8 119 21 159 28 39 7 77 15 83 19 6 4 -46 64
-131 148 -78 78 -143 142 -145 142 -2 0 -8 -17 -13 -37z m183 -215 c-3 -5 -23
-8 -45 -8 -22 0 -56 -7 -76 -15 -47 -20 -56 -10 -38 40 8 22 14 56 15 76 0 20
3 39 7 42 8 9 143 -125 137 -135z"/>
</g>
</svg>
