<?xml version="1.0" standalone="no"?>
<!DOCTYPE svg PUBLIC "-//W3C//DTD SVG 20010904//EN"
 "http://www.w3.org/TR/2001/REC-SVG-20010904/DTD/svg10.dtd">
<svg version="1.0" xmlns="http://www.w3.org/2000/svg"
 width="128.000000pt" height="128.000000pt" viewBox="0 0 128.000000 128.000000"
 preserveAspectRatio="xMidYMid meet">
<metadata>
Created by potrace 1.10, written by Peter Selinger 2001-2011
</metadata>
<g transform="translate(0.000000,128.000000) scale(0.100000,-0.100000)"
fill="#2d2626" stroke="none">
<path d="M603 1273 c-29 -6 -73 -58 -74 -89 -2 -32 -3 -37 -12 -51 -10 -16 47
-117 80 -143 32 -25 54 -25 86 0 37 29 91 130 78 143 -6 6 -11 26 -11 44 0 65
-72 112 -147 96z m98 -42 c18 -19 29 -40 29 -58 0 -15 4 -34 9 -42 11 -17 -41
-105 -75 -128 -22 -14 -26 -14 -48 0 -34 23 -86 111 -75 128 5 8 9 27 9 42 0
18 11 39 29 58 40 39 82 39 122 0z"/>
<path d="M503 971 c-40 -9 -76 -20 -81 -26 -5 -5 -17 -46 -27 -90 -10 -44 -19
-85 -22 -91 -2 -7 6 -15 19 -19 13 -4 48 -19 78 -34 50 -23 66 -26 170 -26
104 0 120 3 170 26 30 15 65 30 78 34 13 4 21 12 19 19 -3 6 -12 47 -22 91
-10 44 -22 84 -27 90 -5 5 -43 17 -85 26 -69 15 -74 15 -56 0 19 -16 19 -17
-12 -111 l-32 -95 -11 53 c-7 29 -12 60 -12 67 0 8 -4 15 -8 15 -5 0 -14 -30
-22 -67 l-13 -68 -32 95 -32 95 21 17 c12 10 19 17 16 17 -3 -1 -37 -9 -77
-18z m79 -193 c17 -45 48 -31 48 23 0 10 5 19 10 19 6 0 10 -9 10 -19 0 -30
11 -51 26 -51 8 0 26 40 46 103 l34 103 44 -11 44 -11 21 -87 c18 -71 19 -87
8 -87 -8 0 -40 -12 -71 -27 -51 -25 -68 -28 -162 -28 -94 0 -111 3 -162 28
-31 15 -63 27 -71 27 -11 0 -10 16 8 87 l21 87 44 11 45 11 23 -76 c13 -41 28
-87 34 -102z"/>
<path d="M610 953 c0 -5 7 -17 15 -27 15 -20 15 -20 30 0 21 28 18 34 -15 34
-16 0 -30 -3 -30 -7z"/>
<path d="M630 635 l0 -25 -183 0 -183 0 -13 -35 c-7 -22 -19 -35 -30 -35 -41
0 -57 -63 -23 -93 52 -47 126 28 77 77 -12 12 -13 20 -3 40 l11 26 174 0 173
0 0 -24 c0 -13 -7 -26 -15 -30 -8 -3 -20 -17 -27 -30 -9 -20 -8 -30 6 -51 36
-56 125 -10 98 51 -7 13 -19 27 -27 30 -8 4 -15 17 -15 30 l0 24 173 0 174 0
11 -26 c10 -20 9 -28 -3 -40 -20 -21 -19 -57 3 -77 24 -22 55 -21 75 1 31 34
16 92 -23 92 -9 0 -24 16 -33 35 l-17 35 -180 0 -180 0 0 25 c0 14 -4 25 -10
25 -5 0 -10 -11 -10 -25z m-363 -131 c8 -22 -10 -49 -32 -49 -22 0 -40 27 -32
49 8 21 56 21 64 0z m402 -1 c12 -23 -4 -53 -29 -53 -25 0 -41 29 -29 52 12
23 45 23 58 1z m408 1 c8 -22 -10 -49 -32 -49 -10 0 -22 7 -28 16 -15 24 -1
49 28 49 15 0 28 -7 32 -16z"/>
<path d="M132 383 c-11 -10 -25 -36 -31 -57 -9 -35 -8 -43 18 -82 l29 -42 -54
-7 c-61 -7 -68 -15 -82 -93 l-9 -52 46 -22 c64 -29 196 -29 262 1 l47 21 -16
62 c-8 35 -20 66 -26 70 -5 4 -32 10 -58 13 -26 4 -48 9 -48 12 0 2 11 19 25
38 22 28 25 39 19 75 -4 24 -15 51 -26 62 -23 23 -70 23 -96 1z m72 -9 c9 -3
20 -23 26 -45 9 -34 8 -43 -15 -79 -38 -60 -36 -63 48 -75 45 -7 46 -8 56 -57
6 -27 11 -50 11 -52 0 -2 -23 -14 -52 -26 -61 -26 -149 -25 -214 4 l-41 18 12
52 c11 51 12 51 61 61 75 15 78 20 49 69 -29 49 -32 82 -9 114 15 22 38 27 68
16z"/>
<path d="M597 388 c-19 -15 -37 -59 -37 -91 0 -12 11 -39 25 -60 l26 -37 -23
0 c-13 0 -39 -5 -59 -10 -33 -9 -38 -15 -48 -58 -7 -26 -14 -55 -17 -64 -4
-12 8 -22 43 -38 67 -31 198 -31 265 -1 l46 21 -14 62 c-8 34 -20 66 -27 70
-7 4 -33 11 -59 14 l-47 6 25 39 c27 43 29 61 13 108 -17 48 -73 68 -112 39z
m76 -21 c31 -22 32 -77 3 -120 -39 -57 -37 -60 48 -72 39 -6 47 -11 52 -34 3
-14 9 -37 13 -51 7 -23 3 -27 -43 -47 -32 -14 -71 -22 -106 -22 -35 0 -74 8
-106 22 -46 20 -50 24 -43 47 4 14 10 37 13 51 5 23 13 28 52 34 85 12 87 15
48 72 -20 30 -24 46 -20 73 6 36 28 60 56 60 9 0 24 -6 33 -13z"/>
<path d="M1052 382 c-11 -11 -22 -38 -26 -62 -6 -36 -3 -47 19 -75 14 -19 25
-36 25 -38 0 -3 -22 -8 -48 -12 -26 -3 -53 -9 -58 -13 -6 -4 -18 -35 -26 -70
l-16 -62 47 -21 c66 -30 198 -30 262 -1 l46 22 -9 52 c-14 78 -21 86 -82 93
l-54 7 29 42 c26 39 27 47 18 82 -6 21 -20 47 -31 57 -26 22 -73 22 -96 -1z
m92 -24 c23 -32 20 -65 -9 -114 -29 -49 -26 -54 49 -69 50 -10 50 -11 61 -60
l10 -50 -35 -18 c-19 -10 -64 -21 -100 -24 -54 -4 -75 -1 -118 17 -57 25 -57
23 -41 85 10 41 13 43 56 50 84 12 86 15 48 75 -23 36 -24 45 -15 80 6 21 16
41 23 43 28 12 57 6 71 -15z"/>
</g>
</svg>
